<svg width="16" height="16" viewBox="0 0 16 16" fill="none" xmlns="http://www.w3.org/2000/svg">
  <g clip-path="url(#clip0_2349_5912)">
    <path d="M14.6667 -0.000167423H13.2187C12.9559 -0.000915743 12.6957 0.050496 12.4529 0.151088C12.2102 0.251679 11.9899 0.399449 11.8047 0.585833L6.23069 6.15917C5.16353 5.88382 4.03545 5.96698 3.0202 6.39582C2.00495 6.82466 1.15886 7.5754 0.612244 8.5324C0.0656313 9.4894 -0.151177 10.5996 -0.00478583 11.6919C0.141605 12.7843 0.643076 13.7982 1.42238 14.5775C2.20169 15.3568 3.2156 15.8582 4.30794 16.0046C5.40028 16.151 6.51045 15.9342 7.46745 15.3876C8.42445 14.841 9.17519 13.9949 9.60403 12.9797C10.0329 11.9644 10.116 10.8363 9.84069 9.76917L10.6667 8.94317V7.33317H12.6667V5.33317H14.276L15.414 4.19517C15.6003 4.00979 15.7481 3.78931 15.8486 3.54649C15.9492 3.30368 16.0007 3.04333 16 2.7805V1.33317C16 0.979544 15.8595 0.640405 15.6095 0.390357C15.3594 0.140308 15.0203 -0.000167423 14.6667 -0.000167423ZM14.6667 2.7805C14.6668 2.86815 14.6495 2.95496 14.616 3.03595C14.5825 3.11694 14.5333 3.19053 14.4714 3.2525L13.724 3.99983H11.3334V5.99983H9.33335V8.38983L8.30335 9.41983C8.53792 9.91381 8.66191 10.453 8.66669 10.9998C8.66669 11.725 8.45164 12.4339 8.04874 13.0369C7.64584 13.6399 7.07319 14.1099 6.40319 14.3874C5.7332 14.6649 4.99595 14.7375 4.28469 14.596C3.57343 14.4546 2.92009 14.1054 2.40729 13.5926C1.8945 13.0798 1.54529 12.4264 1.40381 11.7152C1.26233 11.0039 1.33494 10.2667 1.61246 9.59666C1.88998 8.92666 2.35995 8.35401 2.96293 7.95111C3.56591 7.54821 4.27482 7.33317 5.00002 7.33317C5.55059 7.29718 6.09964 7.42326 6.57935 7.69583L12.7474 1.5285C12.8727 1.40402 13.042 1.33386 13.2187 1.33317H14.6667V2.7805ZM3.33335 11.9998C3.33335 12.1317 3.37245 12.2606 3.44571 12.3702C3.51896 12.4798 3.62308 12.5653 3.7449 12.6158C3.86672 12.6662 4.00076 12.6794 4.13008 12.6537C4.2594 12.628 4.37819 12.5645 4.47142 12.4712C4.56466 12.378 4.62815 12.2592 4.65388 12.1299C4.6796 12.0006 4.6664 11.8665 4.61594 11.7447C4.56548 11.6229 4.48003 11.5188 4.3704 11.4455C4.26077 11.3723 4.13187 11.3332 4.00002 11.3332C3.82321 11.3332 3.65364 11.4034 3.52862 11.5284C3.40359 11.6535 3.33335 11.823 3.33335 11.9998Z" fill="#33333380"/>
  </g>
  <defs>
    <clipPath id="clip0_2349_5912">
      <rect width="16" height="16" fill="white"/>
    </clipPath>
  </defs>
</svg>
