<svg width="26" height="26" viewBox="0 0 26 26" fill="none" xmlns="http://www.w3.org/2000/svg">
<path d="M1 1H21C23.2091 1 25 2.79086 25 5V25H5C2.79086 25 1 23.2091 1 21V1Z" fill="#121212"/>
<path d="M1 1H21C23.2091 1 25 2.79086 25 5V25H5C2.79086 25 1 23.2091 1 21V1Z" stroke="#121212" stroke-width="2"/>
<g opacity="0.75">
<mask id="mask0_494_22335" style="mask-type:alpha" maskUnits="userSpaceOnUse" x="1" y="1" width="24" height="24">
<rect x="1" y="1" width="24" height="24" fill="#D9D9D9"/>
</mask>
<g mask="url(#mask0_494_22335)">
<path d="M6 22C5.45 22 4.97917 21.8042 4.5875 21.4125C4.19583 21.0208 4 20.55 4 20V6C4 5.45 4.19583 4.97917 4.5875 4.5875C4.97917 4.19583 5.45 4 6 4H20C20.55 4 21.0208 4.19583 21.4125 4.5875C21.8042 4.97917 22 5.45 22 6V20C22 20.55 21.8042 21.0208 21.4125 21.4125C21.0208 21.8042 20.55 22 20 22H6ZM6 20H20V6H6V20Z" fill="#EAEAEA"/>
</g>
</g>
</svg>
