<svg width="18" height="18" viewBox="0 0 18 18" fill="none" xmlns="http://www.w3.org/2000/svg">
<g clip-path="url(#clip0_2864_1521)">
<path d="M17.8656 8.38576C17.141 6.81429 16.0797 5.4214 14.7568 4.30576L17.0308 2.03176L15.9696 0.969757L13.4998 3.43726C12.1329 2.64655 10.579 2.23658 8.99984 2.25001C3.37484 2.25001 0.792593 6.94576 0.134092 8.38576C0.0456961 8.57873 -6.10352e-05 8.7885 -6.10352e-05 9.00076C-6.10352e-05 9.21302 0.0456961 9.42278 0.134092 9.61576C0.858694 11.1872 1.92001 12.5801 3.24284 13.6958L0.969593 15.9698L2.03009 17.0303L4.49984 14.5628C5.86682 15.3535 7.42071 15.7634 8.99984 15.75C14.6248 15.75 17.2071 11.0543 17.8656 9.61426C17.9538 9.4215 17.9995 9.212 17.9995 9.00001C17.9995 8.78802 17.9538 8.57852 17.8656 8.38576ZM1.49984 9.00826C2.06234 7.77451 4.26959 3.75001 8.99984 3.75001C10.177 3.74313 11.3388 4.01776 12.3883 4.55101L11.0646 5.87476C10.3445 5.39671 9.48127 5.1825 8.62127 5.26849C7.76126 5.35448 6.95749 5.73536 6.34634 6.34651C5.7352 6.95766 5.35431 7.76143 5.26833 8.62143C5.18234 9.48144 5.39654 10.3447 5.87459 11.0648L4.31534 12.624C3.11562 11.647 2.153 10.4108 1.49984 9.00826ZM11.2498 9.00001C11.2498 9.59674 11.0128 10.169 10.5908 10.591C10.1689 11.013 9.59658 11.25 8.99984 11.25C8.66573 11.2487 8.33624 11.1718 8.03609 11.025L11.0248 8.03626C11.1716 8.33641 11.2486 8.66589 11.2498 9.00001ZM6.74984 9.00001C6.74984 8.40327 6.9869 7.83097 7.40885 7.40902C7.83081 6.98706 8.40311 6.75001 8.99984 6.75001C9.33396 6.7513 9.66345 6.82822 9.96359 6.97501L6.97484 9.96376C6.82806 9.66361 6.75114 9.33412 6.74984 9.00001ZM8.99984 14.25C7.82265 14.2569 6.66086 13.9823 5.61134 13.449L6.93509 12.1253C7.65514 12.6033 8.51841 12.8175 9.37842 12.7315C10.2384 12.6455 11.0422 12.2647 11.6533 11.6535C12.2645 11.0424 12.6454 10.2386 12.7314 9.37858C12.8173 8.51858 12.6031 7.65531 12.1251 6.93526L13.6836 5.37676C14.8857 6.35462 15.8489 7.5938 16.4998 9.00001C15.9268 10.2428 13.7188 14.25 8.99984 14.25Z" fill="#F4F7F6"/>
</g>
<defs>
<clipPath id="clip0_2864_1521">
<rect width="18" height="18" fill="white"/>
</clipPath>
</defs>
</svg>
