<svg width="36" height="36" viewBox="0 0 36 36" fill="none" xmlns="http://www.w3.org/2000/svg">
  <mask id="mask0_219_3087" style="mask-type:alpha" maskUnits="userSpaceOnUse" x="0" y="0" width="36" height="36">
    <rect width="36" height="36" fill="#D9D9D9"/>
  </mask>
  <g mask="url(#mask0_219_3087)">
    <path d="M18 19.5L6 12V27H19.5V30H6C5.175 30 4.46875 29.7063 3.88125 29.1188C3.29375 28.5312 3 27.825 3 27V9C3 8.175 3.29375 7.46875 3.88125 6.88125C4.46875 6.29375 5.175 6 6 6H30C30.825 6 31.5312 6.29375 32.1188 6.88125C32.7063 7.46875 33 8.175 33 9V19.5H30V12L18 19.5ZM18 16.5L30 9H6L18 16.5ZM28.5 34.5L26.4 32.4L28.7625 30H22.5V27H28.7625L26.3625 24.6L28.5 22.5L34.5 28.5L28.5 34.5ZM6 12V28.5V19.5V19.6125V9V12Z" fill="#FFFFFF"/>
  </g>
</svg>
