<svg width="16" height="16" viewBox="0 0 16 16" fill="none" xmlns="http://www.w3.org/2000/svg">
  <path d="M8.73321 12.6667C8.60136 12.6661 8.47264 12.6265 8.36331 12.5528C8.25399 12.4791 8.16898 12.3746 8.11903 12.2526C8.06908 12.1306 8.05643 11.9965 8.08269 11.8673C8.10895 11.7381 8.17293 11.6195 8.26654 11.5267L11.3332 8.47335C11.3957 8.41138 11.4453 8.33764 11.4791 8.2564C11.513 8.17516 11.5304 8.08803 11.5304 8.00002C11.5304 7.91201 11.513 7.82487 11.4791 7.74364C11.4453 7.6624 11.3957 7.58866 11.3332 7.52669L8.26654 4.47335C8.20406 4.41138 8.15446 4.33764 8.12061 4.2564C8.08677 4.17516 8.06934 4.08803 8.06934 4.00002C8.06934 3.91201 8.08677 3.82487 8.12061 3.74364C8.15446 3.6624 8.20406 3.58866 8.26654 3.52669C8.39145 3.40252 8.56042 3.33282 8.73654 3.33282C8.91267 3.33282 9.08164 3.40252 9.20654 3.52669L12.2665 6.58669C12.6411 6.96169 12.8515 7.47002 12.8515 8.00002C12.8515 8.53002 12.6411 9.03835 12.2665 9.41335L9.20654 12.4734C9.14425 12.5351 9.07037 12.584 8.98915 12.6172C8.90792 12.6504 8.82095 12.6672 8.73321 12.6667Z" fill="#33333380"/>
  <path d="M4.0667 12.6667C3.93486 12.6661 3.80613 12.6265 3.69681 12.5528C3.58749 12.4791 3.50248 12.3746 3.45253 12.2526C3.40257 12.1306 3.38993 11.9965 3.41619 11.8673C3.44244 11.7381 3.50642 11.6195 3.60004 11.5267L7.1267 8.00002L3.60004 4.47335C3.53755 4.41138 3.48796 4.33764 3.45411 4.2564C3.42026 4.17516 3.40284 4.08803 3.40284 4.00002C3.40284 3.91201 3.42026 3.82487 3.45411 3.74364C3.48796 3.6624 3.53755 3.58866 3.60004 3.52669C3.72495 3.40252 3.89391 3.33282 4.07004 3.33282C4.24616 3.33282 4.41513 3.40252 4.54004 3.52669L8.54004 7.52669C8.60252 7.58866 8.65212 7.6624 8.68597 7.74364C8.71981 7.82487 8.73724 7.91201 8.73724 8.00002C8.73724 8.08803 8.71981 8.17516 8.68597 8.2564C8.65212 8.33764 8.60252 8.41138 8.54004 8.47335L4.54004 12.4734C4.47774 12.5351 4.40387 12.584 4.32264 12.6172C4.24142 12.6504 4.15444 12.6672 4.0667 12.6667Z" fill="#33333380"/>
</svg>
